<mxfile host="app.diagrams.net" agent="Mozilla/5.0 (Windows NT 10.0; Win64; x64) AppleWebKit/537.36 (KHTML, like Gecko) Chrome/133.0.0.0 Safari/537.36 OPR/118.0.0.0" version="24.7.10">
  <diagram name="Page-1" id="_198OTG6t5nSq7mW1Hz0">
    <mxGraphModel dx="2033" dy="797" grid="1" gridSize="10" guides="1" tooltips="1" connect="1" arrows="1" fold="1" page="1" pageScale="1" pageWidth="850" pageHeight="1100" math="0" shadow="0">
      <root>
        <mxCell id="0" />
        <mxCell id="1" parent="0" />
        <mxCell id="TLKJrsyZKaCPujcYLrbg-1" value="" style="endArrow=none;html=1;rounded=0;" edge="1" parent="1">
          <mxGeometry width="50" height="50" relative="1" as="geometry">
            <mxPoint x="80" y="800" as="sourcePoint" />
            <mxPoint x="80" y="120" as="targetPoint" />
          </mxGeometry>
        </mxCell>
        <mxCell id="TLKJrsyZKaCPujcYLrbg-2" value="Root" style="text;html=1;align=center;verticalAlign=middle;whiteSpace=wrap;rounded=0;" vertex="1" parent="1">
          <mxGeometry x="50" y="90" width="60" height="30" as="geometry" />
        </mxCell>
        <mxCell id="TLKJrsyZKaCPujcYLrbg-3" value="" style="whiteSpace=wrap;html=1;shape=mxgraph.basic.document" vertex="1" parent="1">
          <mxGeometry x="130" y="120" width="60" height="80" as="geometry" />
        </mxCell>
        <mxCell id="TLKJrsyZKaCPujcYLrbg-4" value="app.jl" style="text;html=1;align=center;verticalAlign=middle;whiteSpace=wrap;rounded=0;" vertex="1" parent="1">
          <mxGeometry x="130" y="145" width="60" height="30" as="geometry" />
        </mxCell>
        <mxCell id="TLKJrsyZKaCPujcYLrbg-5" value="" style="endArrow=classic;html=1;rounded=0;" edge="1" parent="1">
          <mxGeometry width="50" height="50" relative="1" as="geometry">
            <mxPoint x="80" y="159.86" as="sourcePoint" />
            <mxPoint x="120" y="159.86" as="targetPoint" />
          </mxGeometry>
        </mxCell>
        <mxCell id="TLKJrsyZKaCPujcYLrbg-6" value="" style="shape=callout;whiteSpace=wrap;html=1;perimeter=calloutPerimeter;" vertex="1" parent="1">
          <mxGeometry x="150" y="40" width="120" height="80" as="geometry" />
        </mxCell>
        <mxCell id="TLKJrsyZKaCPujcYLrbg-7" value="Arquivo executado para iniciar API" style="text;html=1;align=center;verticalAlign=middle;whiteSpace=wrap;rounded=0;" vertex="1" parent="1">
          <mxGeometry x="150" y="40" width="120" height="50" as="geometry" />
        </mxCell>
        <mxCell id="TLKJrsyZKaCPujcYLrbg-10" value="" style="sketch=0;outlineConnect=0;fontColor=#232F3E;gradientColor=none;fillColor=#232F3D;strokeColor=none;dashed=0;verticalLabelPosition=bottom;verticalAlign=top;align=center;html=1;fontSize=12;fontStyle=0;aspect=fixed;pointerEvents=1;shape=mxgraph.aws4.folder;" vertex="1" parent="1">
          <mxGeometry x="121" y="240" width="78" height="71" as="geometry" />
        </mxCell>
        <mxCell id="TLKJrsyZKaCPujcYLrbg-11" value="src" style="text;html=1;align=center;verticalAlign=middle;whiteSpace=wrap;rounded=0;" vertex="1" parent="1">
          <mxGeometry x="130" y="270" width="60" height="30" as="geometry" />
        </mxCell>
        <mxCell id="TLKJrsyZKaCPujcYLrbg-12" value="" style="endArrow=classic;html=1;rounded=0;" edge="1" parent="1">
          <mxGeometry width="50" height="50" relative="1" as="geometry">
            <mxPoint x="80" y="284.71" as="sourcePoint" />
            <mxPoint x="110" y="284.71" as="targetPoint" />
          </mxGeometry>
        </mxCell>
        <mxCell id="TLKJrsyZKaCPujcYLrbg-13" value="" style="sketch=0;outlineConnect=0;fontColor=#232F3E;gradientColor=none;fillColor=#232F3D;strokeColor=none;dashed=0;verticalLabelPosition=bottom;verticalAlign=top;align=center;html=1;fontSize=12;fontStyle=0;aspect=fixed;pointerEvents=1;shape=mxgraph.aws4.folder;" vertex="1" parent="1">
          <mxGeometry x="210" y="330" width="78" height="71" as="geometry" />
        </mxCell>
        <mxCell id="TLKJrsyZKaCPujcYLrbg-14" value="schemas" style="text;html=1;align=center;verticalAlign=middle;whiteSpace=wrap;rounded=0;" vertex="1" parent="1">
          <mxGeometry x="219" y="360" width="60" height="30" as="geometry" />
        </mxCell>
        <mxCell id="TLKJrsyZKaCPujcYLrbg-15" value="" style="endArrow=none;html=1;rounded=0;" edge="1" parent="1" target="TLKJrsyZKaCPujcYLrbg-10">
          <mxGeometry width="50" height="50" relative="1" as="geometry">
            <mxPoint x="160" y="660" as="sourcePoint" />
            <mxPoint x="180" y="350" as="targetPoint" />
          </mxGeometry>
        </mxCell>
        <mxCell id="TLKJrsyZKaCPujcYLrbg-16" value="" style="endArrow=classic;html=1;rounded=0;" edge="1" parent="1">
          <mxGeometry width="50" height="50" relative="1" as="geometry">
            <mxPoint x="160" y="374.71" as="sourcePoint" />
            <mxPoint x="200" y="374.71" as="targetPoint" />
          </mxGeometry>
        </mxCell>
        <mxCell id="TLKJrsyZKaCPujcYLrbg-17" value="" style="sketch=0;outlineConnect=0;fontColor=#232F3E;gradientColor=none;fillColor=#232F3D;strokeColor=none;dashed=0;verticalLabelPosition=bottom;verticalAlign=top;align=center;html=1;fontSize=12;fontStyle=0;aspect=fixed;pointerEvents=1;shape=mxgraph.aws4.folder;" vertex="1" parent="1">
          <mxGeometry x="210" y="420" width="78" height="71" as="geometry" />
        </mxCell>
        <mxCell id="TLKJrsyZKaCPujcYLrbg-18" value="controlers" style="text;html=1;align=center;verticalAlign=middle;whiteSpace=wrap;rounded=0;" vertex="1" parent="1">
          <mxGeometry x="219" y="450" width="60" height="30" as="geometry" />
        </mxCell>
        <mxCell id="TLKJrsyZKaCPujcYLrbg-19" value="" style="endArrow=classic;html=1;rounded=0;" edge="1" parent="1">
          <mxGeometry width="50" height="50" relative="1" as="geometry">
            <mxPoint x="160" y="469.71" as="sourcePoint" />
            <mxPoint x="200" y="469.71" as="targetPoint" />
          </mxGeometry>
        </mxCell>
        <mxCell id="TLKJrsyZKaCPujcYLrbg-20" value="" style="sketch=0;outlineConnect=0;fontColor=#232F3E;gradientColor=none;fillColor=#232F3D;strokeColor=none;dashed=0;verticalLabelPosition=bottom;verticalAlign=top;align=center;html=1;fontSize=12;fontStyle=0;aspect=fixed;pointerEvents=1;shape=mxgraph.aws4.folder;" vertex="1" parent="1">
          <mxGeometry x="210" y="523" width="78" height="71" as="geometry" />
        </mxCell>
        <mxCell id="TLKJrsyZKaCPujcYLrbg-21" value="routes" style="text;html=1;align=center;verticalAlign=middle;whiteSpace=wrap;rounded=0;" vertex="1" parent="1">
          <mxGeometry x="219" y="553" width="60" height="30" as="geometry" />
        </mxCell>
        <mxCell id="TLKJrsyZKaCPujcYLrbg-22" value="" style="endArrow=classic;html=1;rounded=0;" edge="1" parent="1">
          <mxGeometry width="50" height="50" relative="1" as="geometry">
            <mxPoint x="160" y="569.71" as="sourcePoint" />
            <mxPoint x="200" y="569.71" as="targetPoint" />
          </mxGeometry>
        </mxCell>
        <mxCell id="TLKJrsyZKaCPujcYLrbg-23" value="" style="shape=callout;whiteSpace=wrap;html=1;perimeter=calloutPerimeter;size=30;position=0.29;position2=0.18;" vertex="1" parent="1">
          <mxGeometry x="270" y="220" width="170" height="130" as="geometry" />
        </mxCell>
        <mxCell id="TLKJrsyZKaCPujcYLrbg-24" value="Aqui são criados arquivos para cada dado do sistema e são definidos os formatos deles, como classes" style="text;html=1;align=center;verticalAlign=middle;whiteSpace=wrap;rounded=0;" vertex="1" parent="1">
          <mxGeometry x="270" y="220" width="170" height="100" as="geometry" />
        </mxCell>
        <mxCell id="TLKJrsyZKaCPujcYLrbg-25" style="edgeStyle=orthogonalEdgeStyle;rounded=0;orthogonalLoop=1;jettySize=auto;html=1;exitX=0.5;exitY=1;exitDx=0;exitDy=0;" edge="1" parent="1" source="TLKJrsyZKaCPujcYLrbg-24" target="TLKJrsyZKaCPujcYLrbg-24">
          <mxGeometry relative="1" as="geometry" />
        </mxCell>
        <mxCell id="TLKJrsyZKaCPujcYLrbg-26" value="" style="shape=callout;whiteSpace=wrap;html=1;perimeter=calloutPerimeter;position2=0;size=41;position=0.14;" vertex="1" parent="1">
          <mxGeometry x="320" y="370" width="220" height="111" as="geometry" />
        </mxCell>
        <mxCell id="TLKJrsyZKaCPujcYLrbg-27" value="Aqui são criados os arquivos com as funções do sistema, como login ou registro no banco" style="text;html=1;align=center;verticalAlign=middle;whiteSpace=wrap;rounded=0;" vertex="1" parent="1">
          <mxGeometry x="320" y="370" width="220" height="70" as="geometry" />
        </mxCell>
        <mxCell id="TLKJrsyZKaCPujcYLrbg-28" value="" style="sketch=0;outlineConnect=0;fontColor=#232F3E;gradientColor=none;fillColor=#232F3D;strokeColor=none;dashed=0;verticalLabelPosition=bottom;verticalAlign=top;align=center;html=1;fontSize=12;fontStyle=0;aspect=fixed;pointerEvents=1;shape=mxgraph.aws4.folder;" vertex="1" parent="1">
          <mxGeometry x="210" y="610" width="78" height="71" as="geometry" />
        </mxCell>
        <mxCell id="TLKJrsyZKaCPujcYLrbg-29" value="utils" style="text;html=1;align=center;verticalAlign=middle;whiteSpace=wrap;rounded=0;" vertex="1" parent="1">
          <mxGeometry x="219" y="640" width="60" height="30" as="geometry" />
        </mxCell>
        <mxCell id="TLKJrsyZKaCPujcYLrbg-30" value="" style="endArrow=classic;html=1;rounded=0;" edge="1" parent="1">
          <mxGeometry width="50" height="50" relative="1" as="geometry">
            <mxPoint x="160" y="656.71" as="sourcePoint" />
            <mxPoint x="200" y="656.71" as="targetPoint" />
          </mxGeometry>
        </mxCell>
        <mxCell id="TLKJrsyZKaCPujcYLrbg-31" value="" style="shape=callout;whiteSpace=wrap;html=1;perimeter=calloutPerimeter;size=40;position=0.17;position2=0;" vertex="1" parent="1">
          <mxGeometry x="310" y="496" width="120" height="80" as="geometry" />
        </mxCell>
        <mxCell id="TLKJrsyZKaCPujcYLrbg-32" value="Rotas da API" style="text;html=1;align=center;verticalAlign=middle;whiteSpace=wrap;rounded=0;" vertex="1" parent="1">
          <mxGeometry x="320" y="503" width="100" height="30" as="geometry" />
        </mxCell>
        <mxCell id="TLKJrsyZKaCPujcYLrbg-33" value="" style="shape=callout;whiteSpace=wrap;html=1;perimeter=calloutPerimeter;size=31;position=0.25;position2=0;" vertex="1" parent="1">
          <mxGeometry x="330" y="576" width="200" height="94" as="geometry" />
        </mxCell>
        <mxCell id="TLKJrsyZKaCPujcYLrbg-34" value="Funções muito pequenas, básicas ou gerias devem vir para cá" style="text;html=1;align=center;verticalAlign=middle;whiteSpace=wrap;rounded=0;" vertex="1" parent="1">
          <mxGeometry x="330" y="576" width="200" height="63" as="geometry" />
        </mxCell>
        <mxCell id="TLKJrsyZKaCPujcYLrbg-35" value="" style="sketch=0;outlineConnect=0;fontColor=#232F3E;gradientColor=none;fillColor=#232F3D;strokeColor=none;dashed=0;verticalLabelPosition=bottom;verticalAlign=top;align=center;html=1;fontSize=12;fontStyle=0;aspect=fixed;pointerEvents=1;shape=mxgraph.aws4.folder;" vertex="1" parent="1">
          <mxGeometry x="121" y="752" width="78" height="71" as="geometry" />
        </mxCell>
        <mxCell id="TLKJrsyZKaCPujcYLrbg-36" value="database" style="text;html=1;align=center;verticalAlign=middle;whiteSpace=wrap;rounded=0;" vertex="1" parent="1">
          <mxGeometry x="130" y="782" width="60" height="30" as="geometry" />
        </mxCell>
        <mxCell id="TLKJrsyZKaCPujcYLrbg-37" value="" style="endArrow=classic;html=1;rounded=0;" edge="1" parent="1">
          <mxGeometry width="50" height="50" relative="1" as="geometry">
            <mxPoint x="80" y="796.71" as="sourcePoint" />
            <mxPoint x="110" y="796.71" as="targetPoint" />
          </mxGeometry>
        </mxCell>
        <mxCell id="TLKJrsyZKaCPujcYLrbg-38" value="" style="shape=callout;whiteSpace=wrap;html=1;perimeter=calloutPerimeter;size=31;position=0.25;position2=0;" vertex="1" parent="1">
          <mxGeometry x="220" y="698.5" width="200" height="94" as="geometry" />
        </mxCell>
        <mxCell id="TLKJrsyZKaCPujcYLrbg-39" value="Exclusivo do MVP. Nessa pasta vamos somente simular um banco, para nos poupar de implementar um inicialmente" style="text;html=1;align=center;verticalAlign=middle;whiteSpace=wrap;rounded=0;" vertex="1" parent="1">
          <mxGeometry x="220" y="698.5" width="200" height="63" as="geometry" />
        </mxCell>
      </root>
    </mxGraphModel>
  </diagram>
</mxfile>
